<svg width="750" height="748" viewBox="0 0 750 748" fill="none" xmlns="http://www.w3.org/2000/svg">
<path d="M536.416 36.886C350.158 -51.8285 126.269 27.1207 37.3167 212.881C-51.6352 398.641 27.5253 621.933 213.783 710.648C400.04 799.362 623.93 720.413 712.882 534.653C801.834 348.893 722.673 125.6 536.416 36.886ZM725.648 497.417C741.048 427.025 712.881 346.511 652.953 275.789C654.99 183.216 626.154 102.938 569.813 57.8435C718.729 149.002 784.029 333.142 725.637 497.383L725.648 497.417ZM330.077 467.788C298.63 452.81 268.787 437.097 240.993 421.056C252.5 391.157 265.808 360.228 280.826 328.865C295.845 297.502 311.599 267.738 327.683 240.019C357.663 251.495 388.675 264.768 420.122 279.746C451.568 294.724 481.412 310.437 509.205 326.478C497.698 356.377 484.39 387.306 469.372 418.669C454.354 450.032 438.599 479.795 422.515 507.515C392.535 496.039 361.524 482.766 330.077 467.788ZM421.241 509.711C394.928 554.841 367.829 594.408 341.803 626.272C317.216 618.641 292.504 609.063 268.013 597.398C243.521 585.732 220.508 572.607 199.114 558.309C207.604 518.093 221.403 472.192 240.081 423.425C268.124 439.584 297.933 455.253 328.995 470.048C360.057 484.842 391.012 498.116 421.241 509.711V509.711ZM238.803 419.819C193.552 393.576 153.879 366.549 121.93 340.593C129.559 316.061 139.185 291.426 150.882 267C162.578 242.574 175.739 219.622 190.075 198.284C230.399 206.752 276.423 220.515 325.32 239.143C309.117 267.111 293.407 296.84 278.573 327.819C263.738 358.798 250.429 389.671 238.803 419.819V419.819ZM328.936 237.868C355.249 192.737 382.348 153.171 408.374 121.307C432.971 128.915 457.672 138.516 482.164 150.181C506.655 161.847 529.668 174.972 551.063 189.27C542.573 229.486 528.773 275.387 510.095 324.154C482.052 307.995 452.254 292.303 421.193 277.509C390.131 262.714 359.175 249.441 328.936 237.868V237.868ZM471.627 419.771C486.461 388.792 499.77 357.919 511.374 327.76C556.625 354.003 596.298 381.03 628.247 406.986C620.618 431.518 610.991 456.153 599.295 480.579C587.598 505.005 574.438 527.957 560.102 549.295C519.778 540.827 473.754 527.064 424.856 508.436C441.059 480.468 456.792 450.75 471.627 419.771V419.771ZM512.308 325.402C530.6 277.673 544.537 231.892 553.223 190.687C591.162 216.277 623.901 245.524 650.442 276.674C649.455 317.55 642.401 360.81 629.022 404.497C596.286 377.916 556.594 351.047 512.296 325.369L512.308 325.402ZM553.782 188.067C555.134 181.524 556.409 175.027 557.474 168.736C567.904 107.965 564.355 65.2894 547.637 45.6996C616.306 85.6767 652.074 171.698 650.51 272.988C623.964 242.196 591.401 213.339 553.759 188.056L553.782 188.067ZM551.633 186.627C530.387 172.484 507.533 159.49 483.269 147.933C459.004 136.375 434.517 126.849 410.122 119.225C460.766 57.7402 507.172 25.7321 535.334 39.1456C563.496 52.5591 567.703 108.675 551.621 186.594L551.633 186.627ZM420.403 103.449C416.155 108.252 411.901 113.302 407.648 118.464C364.294 105.168 321.299 98.0364 280.601 96.8C358.596 31.8866 448.162 5.56184 522.5 33.6988C496.737 33.0551 461.226 57.127 420.369 103.405L420.403 103.449ZM405.946 120.566C379.294 153.215 352.353 192.801 326.606 236.98C278.749 218.737 232.846 204.837 191.53 196.175C217.189 158.336 246.514 125.685 277.747 99.2147C318.733 100.2 362.108 107.234 405.912 120.578L405.946 120.566ZM188.869 195.573C182.308 194.224 175.794 192.953 169.486 191.891C108.553 181.489 65.7518 185.05 46.1204 201.701C86.2045 133.216 172.456 97.5427 274.017 99.1029C243.143 125.578 214.208 158.054 188.858 195.596L188.869 195.573ZM187.425 197.716C173.244 218.905 160.215 241.698 148.627 265.898C137.039 290.098 127.487 314.519 119.843 338.85C58.2267 288.329 26.133 242.047 39.5823 213.96C53.0317 185.873 109.297 181.677 187.425 197.716ZM104.014 328.618C108.83 332.855 113.893 337.098 119.068 341.339C105.737 384.577 98.5865 427.458 97.3467 468.047C32.3038 390.226 5.90869 300.899 34.1209 226.76C33.4755 252.453 57.6119 287.87 104.014 328.618ZM121.177 343.037C153.912 369.618 193.605 396.487 237.902 422.165C219.61 469.894 205.673 515.675 196.988 556.881C159.048 531.29 126.309 502.043 99.7679 470.893C100.755 430.017 107.809 386.757 121.189 343.07L121.177 343.037ZM196.429 559.5C195.076 566.043 193.802 572.54 192.737 578.831C182.306 639.602 185.855 682.278 202.573 701.867C133.904 661.89 98.1358 575.869 99.7001 474.579C126.246 505.371 158.832 534.239 196.451 559.511L196.429 559.5ZM198.577 560.94C219.823 575.083 242.677 588.077 266.942 599.635C291.206 611.192 315.693 620.718 340.088 628.342C289.433 689.794 243.026 721.802 214.865 708.388C186.703 694.975 182.495 638.859 198.577 560.94ZM329.83 644.129C334.077 639.326 338.309 634.265 342.584 629.114C385.938 642.41 428.934 649.541 469.632 650.778C391.625 715.658 302.059 741.983 227.721 713.846C253.484 714.489 288.995 690.417 329.852 644.14L329.83 644.129ZM344.287 627.012C370.939 594.363 397.88 554.777 423.627 510.598C471.484 528.841 517.387 542.741 558.703 551.403C533.044 589.241 503.719 621.893 472.485 648.363C431.5 647.378 388.124 640.344 344.32 627L344.287 627.012ZM561.33 551.96C567.89 553.309 574.404 554.58 580.712 555.643C641.645 566.045 684.436 562.506 704.078 545.833C663.994 614.318 577.742 649.991 476.181 648.431C507.056 621.956 535.99 589.479 561.341 551.938L561.33 551.96ZM562.773 549.818C576.954 528.628 589.983 505.836 601.571 481.636C613.16 457.436 622.711 433.015 630.355 408.684C691.972 459.205 724.065 505.487 710.616 533.574C697.167 561.66 640.901 565.857 562.773 549.818ZM646.185 418.915C641.369 414.679 636.295 410.459 631.13 406.195C644.462 362.957 651.612 320.076 652.852 279.487C717.905 357.285 744.3 446.612 716.088 520.751C716.734 495.058 692.597 459.642 646.196 418.893L646.185 418.915ZM499.08 24.1534C428.5 8.79527 347.771 36.8869 276.859 96.6547C184.038 94.6232 103.545 123.383 58.3303 179.573C149.743 31.0314 334.365 -34.071 499.08 24.1534ZM24.55 250.117C9.15077 320.508 37.3284 401 97.2454 471.745C95.2084 564.318 124.045 644.596 180.385 689.69C31.4464 598.521 -33.8194 414.369 24.55 250.117ZM251.129 723.358C321.709 738.716 402.416 710.613 473.35 650.856C566.171 652.888 646.664 624.129 691.879 567.938C600.477 716.457 415.844 781.582 251.163 723.346L251.129 723.358Z" fill="url(#paint0_linear_26_2)"/>
<defs>
<linearGradient id="paint0_linear_26_2" x1="48.8023" y1="312.563" x2="717.132" y2="539.312" gradientUnits="userSpaceOnUse">
<stop stop-color="#E3418E" stop-opacity="0"/>
<stop offset="1" stop-color="#EC0E6E"/>
</linearGradient>
</defs>
</svg>
